<svg width="0" height="0" style="position: absolute;" xmlns="http://www.w3.org/2000/svg" xmlns:xlink="http://www.w3.org/1999/xlink"><symbol viewBox="0 0 512 512" class="alogo arotate" id="icon-logo"><title>Vets on point logo</title><desc>A customized location icon, where the top rounded part is broken up into four circular blocks with the north star in the center, creating a compass, and the bottom pointed end is turned into a stencil looking letter 'V'.</desc><a xlink:href="#site-logo" tabindex="0"><path class="alt-side" d="M111.8 215h-1.2l145.6 289.9 24.9-53-76.5-150.8c-41.7-14.4-75.4-46.1-92.8-86.1z"/><path class="art-side" d="M398.8 215h1.2L287.7 439.8l-26.4-51.7L306 301c41.7-14.3 75.4-46 92.8-86z"/><path class="atp-left" d="M234.5 131.9l1-11.3-42.6-30.3 30.9 42.6z"/><path class="atp-right" d="M277.9 131.9l-1-11.3 42.6-30.3-30.9 42.6z"/><path class="abtm-lt" d="M234.5 173.8l1 11.4-42.6 30.3 30.9-42.6z"/><path class="abtm-rt" d="M277.9 173.8l-1 11.4 42.6 30.3-30.9-42.6z"/><g><path class="atop-right" d="M272.2 52.9c43.1 7.1 77 41.4 83.6 84.6l44.2 3.9C394.4 71 338.5 14.7 268.3 8.6l3.9 44.3z"/><path class="atop-left" d="M155.2 137.5c6.6-43.4 40.8-77.8 84.1-84.7l4.1-44.3c-70.5 5.9-126.7 62.2-132.3 132.8l44.1-3.8z"/><path class="abottom-left" d="M239.1 253.2c-42.5-6.9-76.1-40.3-83.5-82.6l-44.4-4.1c6.4 69.7 62.1 125.1 132 131l-4.1-44.3z"/><path class="abottom-right" d="M355.4 170.5c-7.3 42.3-40.8 75.5-83.1 82.6l-3.9 44.3c69.6-6.1 125-61.5 131.4-131.1l-44.4 4.2z"/><path class="atop" d="M256.2 8l12 133.7s-4.4-4.8-11.9-4.8-11.9 4.9-11.9 4.9L256.2 8z"/><path class="abottom" d="M256.2 298l12-132.5s-3.8 4.8-12 4.8c-7.8 0-11.9-4.9-11.9-4.9L256.2 298z"/><path class="aright" d="M400.4 153.6l-132.2-11.9s4.8 4.2 4.8 12c0 8.2-4.8 12-4.8 12l132.2-12.1z"/><path class="aleft" d="M110.6 153.6l133.7-11.9s-4.9 4.3-4.9 11.9c0 7.7 4.9 11.9 4.9 11.9l-133.7-11.9z"/></g></a></symbol></svg>